# xmcd CD database file
#
# Track frame offsets:
#	150
#	25580
#	35391
#	43417
#	57501
#	67345
#	80229
#	88991
#	109188
#	124989
#	143940
#	155459
#	169996
#	186095
#	197662
#	210093
#	224132
#	243613
#	252456
#	260657
#
# Disc length: 3838 seconds
#
# Revision: 0
# Processed by: cddbd v1.5.2PL0 Copyright (c) Steve Scherf et al.
# Submitted via: CDex 1.70beta2
#
DISCID=420efc14
DTITLE=Lulo Reinhardt - Desert Inspiration
DYEAR=2015
DGENRE=Jazz
TTITLE0=Desert Inspiration
TTITLE1=Memories of Dachau
TTITLE2=Der Marrokanische Jäger
TTITLE3=Pour Cherif No. 2
TTITLE4=Memories of Dachau No. 2
TTITLE5=Memories of Dachau No. 3
TTITLE6=Memories of Dachau No. 4
TTITLE7=Australia
TTITLE8=Noel
TTITLE9=La Bassita
TTITLE10=Hotel de Paris
TTITLE11=Pour Amine
TTITLE12=Snow Inspiration
TTITLE13=Djamila
TTITLE14=Sanine
TTITLE15=Lion
TTITLE16=Pour Cherif No. 3
TTITLE17=Daimen No. 2
TTITLE18=Kiano No. 2
TTITLE19=Desert Inspiration No. 2
EXTD=YEAR: 2015
EXTT0=
EXTT1=
EXTT2=
EXTT3=
EXTT4=
EXTT5=
EXTT6=
EXTT7=
EXTT8=
EXTT9=
EXTT10=
EXTT11=
EXTT12=
EXTT13=
EXTT14=
EXTT15=
EXTT16=
EXTT17=
EXTT18=
EXTT19=
PLAYORDER=
